<?xml version="1.0" encoding="UTF-8" standalone="no"?>
<svg
   xmlns:dc="http://purl.org/dc/elements/1.1/"
   xmlns:cc="http://creativecommons.org/ns#"
   xmlns:rdf="http://www.w3.org/1999/02/22-rdf-syntax-ns#"
   xmlns:svg="http://www.w3.org/2000/svg"
   xmlns="http://www.w3.org/2000/svg"
   xmlns:sodipodi="http://sodipodi.sourceforge.net/DTD/sodipodi-0.dtd"
   xmlns:inkscape="http://www.inkscape.org/namespaces/inkscape"
   xml:space="default"
   version="1.1"
   viewBox="0 0 250 250"
   width="250"
   height="250"
   id="svg6"
   sodipodi:docname="library.svg"
   inkscape:version="0.92.4 (5da689c313, 2019-01-14)">
  <metadata
     id="metadata12">
    <rdf:RDF>
      <cc:Work
         rdf:about="">
        <dc:format>image/svg+xml</dc:format>
        <dc:type
           rdf:resource="http://purl.org/dc/dcmitype/StillImage" />
      </cc:Work>
    </rdf:RDF>
  </metadata>
  <defs
     id="defs10" />
  <sodipodi:namedview
     pagecolor="#ffffff"
     bordercolor="#666666"
     borderopacity="1"
     objecttolerance="10"
     gridtolerance="10"
     guidetolerance="10"
     inkscape:pageopacity="0"
     inkscape:pageshadow="2"
     inkscape:window-width="1920"
     inkscape:window-height="1027"
     id="namedview8"
     showgrid="false"
     inkscape:zoom="1.888"
     inkscape:cx="268.72921"
     inkscape:cy="79.862105"
     inkscape:window-x="-8"
     inkscape:window-y="-8"
     inkscape:window-maximized="1"
     inkscape:current-layer="svg6" />
  <title
     id="title2">日本の地図記号 - 図書館</title>
  <path
     inkscape:connector-curvature="0"
     style="fill:#ffffff;stroke-width:2.03389978"
     d="m 221.7135,250.74427 c 16.64146,0 30.11217,-13.35307 30.11217,-29.88808 V 30.233851 c 0,-16.536008 -13.47071,-29.92114503 -30.11217,-29.92114503 H 29.875479 c -16.641512,0 -30.11216921,13.38513703 -30.11216921,29.92114503 V 220.85796 c 0,16.5358 13.47065721,29.88865 30.11216921,29.88865 H 221.7135 Z"
     id="path2-3" />
  <path
     inkscape:connector-curvature="0"
     style="fill:#e9c6af;stroke-width:1.91375089"
     d="m 33.690912,13.518759 c -13.126878,0 -23.8101831,10.370316 -23.8101831,23.112833 V 213.91293 c 0,12.74184 10.6833051,23.09719 23.8101831,23.09719 H 216.30913 c 13.14234,0 23.81014,-10.35535 23.81014,-23.09719 V 36.633665 c 0,-12.742567 -10.66775,-23.112685 -23.81014,-23.112685 H 33.683134 Z"
     id="path4-4" />
  <path
     d="M 67.912868,198.47285 29.089096,86.718746 C 43.206832,61.694927 70.854062,53.164079 112.03079,61.126204 133.2074,39.514723 157.03107,32.690045 183.50183,40.652169 l 36.23359,104.298271 2.59018,7.45584 c -34.11785,-7.96214 -57.94153,-1.13746 -71.47103,20.47401 -40.00026,-7.96212 -68.235726,0.56874 -84.706417,25.59256 L 29.089096,86.718746 M 112.03079,61.126204 145.56042,168.61488"
     id="path4"
     inkscape:connector-curvature="0"
     style="fill:#e9c6af;stroke:#000001;stroke-width:13.88157082px;stroke-opacity:0.71627909"
     sodipodi:nodetypes="ccccccccccc" />
</svg>
